<svg id="Layer_1" data-name="Layer 1" xmlns="http://www.w3.org/2000/svg" viewBox="0 0 262.717 45.27"><defs><style>.cls-1{fill:#231f20;}.cls-2{stroke:#231f20;stroke-miterlimit:10;stroke-width:0.5px;}</style></defs><path class="cls-1" d="M2.72,20.937A8.781,8.781,0,0,1,0,19.755l1.318-2.61A8.435,8.435,0,0,0,3.7,18.2a9.857,9.857,0,0,0,2.733.4q3.078,0,3.078-1.622a1.082,1.082,0,0,0-.784-1.071,13.592,13.592,0,0,0-2.513-.577A20.208,20.208,0,0,1,3.257,14.7a4.534,4.534,0,0,1-1.979-1.25A3.49,3.49,0,0,1,.44,10.962,3.909,3.909,0,0,1,2.184,7.624,7.946,7.946,0,0,1,6.9,6.374a13.545,13.545,0,0,1,3.023.344,8.413,8.413,0,0,1,2.472.92l-1.318,2.61a8.143,8.143,0,0,0-4.2-1.1A4.65,4.65,0,0,0,4.575,9.6a1.349,1.349,0,0,0-.783,1.2,1.193,1.193,0,0,0,.838,1.167,13.315,13.315,0,0,0,2.6.646,20.037,20.037,0,0,1,2.885.632,4.52,4.52,0,0,1,1.938,1.209,3.372,3.372,0,0,1,.81,2.418,3.828,3.828,0,0,1-1.786,3.3A8.427,8.427,0,0,1,6.21,21.4,13.2,13.2,0,0,1,2.72,20.937ZM26.39,7.927a6,6,0,0,1,1.718,4.684v8.6H24.866V19.425a4,4,0,0,1-1.8,1.47,7.054,7.054,0,0,1-2.816.508,6.907,6.907,0,0,1-2.885-.563,4.457,4.457,0,0,1-1.91-1.567,3.975,3.975,0,0,1-.673-2.266,3.883,3.883,0,0,1,1.47-3.173,7.3,7.3,0,0,1,4.63-1.2h3.792v-.22a3.009,3.009,0,0,0-.921-2.363,3.981,3.981,0,0,0-2.734-.825,7.873,7.873,0,0,0-2.431.385,5.988,5.988,0,0,0-2.02,1.072l-1.347-2.5A8.342,8.342,0,0,1,18,6.841a12.355,12.355,0,0,1,3.434-.467A7.15,7.15,0,0,1,26.39,7.927ZM23.259,18.312a3.219,3.219,0,0,0,1.415-1.69v-1.7H21.129q-2.967,0-2.967,1.951a1.753,1.753,0,0,0,.741,1.484,3.407,3.407,0,0,0,2.062.549A4.436,4.436,0,0,0,23.259,18.312ZM45.279,8A6.4,6.4,0,0,1,46.956,12.8v8.407H43.521V13.243a4.118,4.118,0,0,0-.907-2.9,3.351,3.351,0,0,0-2.582-.975,3.964,3.964,0,0,0-2.995,1.14,4.544,4.544,0,0,0-1.1,3.283v7.419H32.5V6.539h3.269v1.9A5.367,5.367,0,0,1,37.916,6.9a7.715,7.715,0,0,1,2.913-.522A6.128,6.128,0,0,1,45.279,8ZM60.144,20.414a4.041,4.041,0,0,1-1.47.742,6.616,6.616,0,0,1-1.828.247A5.186,5.186,0,0,1,53.11,20.14a4.868,4.868,0,0,1-1.318-3.682V9.4H49.374V6.648h2.418V3.3h3.433V6.648h3.93V9.4h-3.93v6.979a2.316,2.316,0,0,0,.523,1.635,1.954,1.954,0,0,0,1.511.563,3.015,3.015,0,0,0,1.923-.6ZM75.75,8A6.4,6.4,0,0,1,77.426,12.8v8.407H73.991V13.243a4.122,4.122,0,0,0-.906-2.9A3.355,3.355,0,0,0,70.5,9.369a3.962,3.962,0,0,0-2.994,1.14,4.54,4.54,0,0,0-1.1,3.283v7.419H62.973V.824h3.435V8.242a5.608,5.608,0,0,1,2.1-1.388,7.725,7.725,0,0,1,2.789-.48A6.131,6.131,0,0,1,75.75,8Zm16.608-.068a6,6,0,0,1,1.717,4.684v8.6H90.834V19.425a4,4,0,0,1-1.8,1.47,7.054,7.054,0,0,1-2.816.508,6.907,6.907,0,0,1-2.885-.563,4.457,4.457,0,0,1-1.91-1.567,3.968,3.968,0,0,1-.673-2.266,3.885,3.885,0,0,1,1.469-3.173,7.3,7.3,0,0,1,4.63-1.2h3.792v-.22a3.005,3.005,0,0,0-.921-2.363,3.976,3.976,0,0,0-2.733-.825,7.88,7.88,0,0,0-2.432.385,5.993,5.993,0,0,0-2.019,1.072l-1.347-2.5a8.342,8.342,0,0,1,2.776-1.347A12.355,12.355,0,0,1,87.4,6.374,7.152,7.152,0,0,1,92.358,7.927ZM89.226,18.312a3.214,3.214,0,0,0,1.415-1.69v-1.7H87.1q-2.966,0-2.966,1.951a1.753,1.753,0,0,0,.741,1.484,3.4,3.4,0,0,0,2.061.549A4.433,4.433,0,0,0,89.226,18.312ZM116.619,7.927a6,6,0,0,1,1.717,4.684v8.6h-3.242V19.425a3.99,3.99,0,0,1-1.8,1.47,7.059,7.059,0,0,1-2.817.508,6.9,6.9,0,0,1-2.884-.563,4.46,4.46,0,0,1-1.911-1.567,3.968,3.968,0,0,1-.673-2.266,3.886,3.886,0,0,1,1.47-3.173,7.3,7.3,0,0,1,4.63-1.2H114.9v-.22a3.008,3.008,0,0,0-.92-2.363,3.98,3.98,0,0,0-2.733-.825,7.875,7.875,0,0,0-2.432.385,5.964,5.964,0,0,0-2.019,1.072l-1.347-2.5a8.327,8.327,0,0,1,2.775-1.347,12.362,12.362,0,0,1,3.435-.467A7.155,7.155,0,0,1,116.619,7.927Zm-3.132,10.385a3.208,3.208,0,0,0,1.414-1.69v-1.7h-3.544q-2.967,0-2.967,1.951a1.751,1.751,0,0,0,.742,1.484,3.4,3.4,0,0,0,2.06.549A4.437,4.437,0,0,0,113.487,18.312Zm12.02,2.129a7.045,7.045,0,0,1-2.83-2.678,7.485,7.485,0,0,1-1.017-3.888A7.412,7.412,0,0,1,122.677,10a7.1,7.1,0,0,1,2.816-2.665,8.567,8.567,0,0,1,4.107-.962,7.915,7.915,0,0,1,3.806.879,5.716,5.716,0,0,1,2.459,2.528l-2.638,1.538a4.206,4.206,0,0,0-1.58-1.524,4.609,4.609,0,0,0-5.262.741,4.489,4.489,0,0,0-1.263,3.339,4.51,4.51,0,0,0,1.25,3.338,4.628,4.628,0,0,0,5.275.742,4.2,4.2,0,0,0,1.58-1.524l2.638,1.538a5.96,5.96,0,0,1-2.486,2.542,7.776,7.776,0,0,1-3.779.892A8.589,8.589,0,0,1,125.507,20.441Zm15.743,0a7.045,7.045,0,0,1-2.83-2.678,7.485,7.485,0,0,1-1.017-3.888A7.412,7.412,0,0,1,138.42,10a7.1,7.1,0,0,1,2.816-2.665,8.568,8.568,0,0,1,4.108-.962,7.914,7.914,0,0,1,3.805.879,5.716,5.716,0,0,1,2.459,2.528l-2.638,1.538A4.2,4.2,0,0,0,147.39,9.8a4.608,4.608,0,0,0-5.261.741,4.486,4.486,0,0,0-1.264,3.339,4.51,4.51,0,0,0,1.25,3.338,4.628,4.628,0,0,0,5.275.742,4.191,4.191,0,0,0,1.58-1.524l2.638,1.538a5.96,5.96,0,0,1-2.486,2.542,7.775,7.775,0,0,1-3.778.892A8.59,8.59,0,0,1,141.25,20.441Zm15.688,0a7,7,0,0,1-2.789-2.678,7.562,7.562,0,0,1-1-3.888,7.488,7.488,0,0,1,1-3.874,7.038,7.038,0,0,1,2.789-2.665,8.9,8.9,0,0,1,8.05,0A7.044,7.044,0,0,1,167.777,10a7.5,7.5,0,0,1,1,3.874,7.572,7.572,0,0,1-1,3.888,7.008,7.008,0,0,1-2.789,2.678,8.9,8.9,0,0,1-8.05,0Zm7.144-3.242a4.549,4.549,0,0,0,1.236-3.324,4.553,4.553,0,0,0-1.236-3.325,4.2,4.2,0,0,0-3.133-1.264,4.151,4.151,0,0,0-3.118,1.264,4.577,4.577,0,0,0-1.223,3.325,4.573,4.573,0,0,0,1.223,3.324,4.148,4.148,0,0,0,3.118,1.265A4.2,4.2,0,0,0,164.082,17.2Zm22.2-10.66V21.211h-3.27V19.343a5.451,5.451,0,0,1-2.06,1.524,6.616,6.616,0,0,1-2.665.536,6.379,6.379,0,0,1-4.63-1.634,6.45,6.45,0,0,1-1.689-4.85V6.539H175.4v7.913a4.243,4.243,0,0,0,.894,2.953,3.267,3.267,0,0,0,2.541.976,3.85,3.85,0,0,0,2.926-1.14,4.584,4.584,0,0,0,1.085-3.284V6.539ZM203.563,8a6.4,6.4,0,0,1,1.676,4.809v8.407H201.8V13.243a4.117,4.117,0,0,0-.906-2.9,3.354,3.354,0,0,0-2.583-.975,3.966,3.966,0,0,0-3,1.14,4.548,4.548,0,0,0-1.1,3.283v7.419h-3.434V6.539h3.269v1.9A5.371,5.371,0,0,1,196.2,6.9a7.706,7.706,0,0,1,2.912-.522A6.131,6.131,0,0,1,203.563,8Zm14.864,12.419a4.029,4.029,0,0,1-1.469.742,6.619,6.619,0,0,1-1.827.247,5.186,5.186,0,0,1-3.737-1.263,4.864,4.864,0,0,1-1.319-3.682V9.4h-2.418V6.648h2.418V3.3h3.435V6.648h3.928V9.4H213.51v6.979a2.315,2.315,0,0,0,.522,1.635,1.957,1.957,0,0,0,1.511.563,3.022,3.022,0,0,0,1.924-.6Zm3-16.884a1.926,1.926,0,0,1-.632-1.469,1.927,1.927,0,0,1,.632-1.47A2.2,2.2,0,0,1,222.989,0a2.27,2.27,0,0,1,1.565.562,1.819,1.819,0,0,1,.632,1.416,2.073,2.073,0,0,1-.618,1.525,2.138,2.138,0,0,1-1.579.618A2.2,2.2,0,0,1,221.423,3.53Zm-.165,3.009h3.434V21.211h-3.434ZM241.973,8a6.394,6.394,0,0,1,1.676,4.809v8.407h-3.434V13.243a4.118,4.118,0,0,0-.907-2.9,3.352,3.352,0,0,0-2.583-.975,3.967,3.967,0,0,0-3,1.14,4.548,4.548,0,0,0-1.1,3.283v7.419H229.2V6.539h3.27v1.9A5.361,5.361,0,0,1,234.61,6.9a7.706,7.706,0,0,1,2.912-.522A6.131,6.131,0,0,1,241.973,8Zm20.744-1.456V18.985q0,7.747-7.913,7.748a14.643,14.643,0,0,1-4.011-.536,8.5,8.5,0,0,1-3.132-1.551l1.538-2.584a7.328,7.328,0,0,0,2.432,1.278,9.542,9.542,0,0,0,2.981.481,4.923,4.923,0,0,0,3.544-1.1,4.493,4.493,0,0,0,1.127-3.352V18.6a5.645,5.645,0,0,1-2.144,1.456,7.54,7.54,0,0,1-2.774.5,7.951,7.951,0,0,1-3.778-.894,6.69,6.69,0,0,1-2.665-2.513,7.049,7.049,0,0,1-.976-3.709,6.981,6.981,0,0,1,.976-3.7,6.639,6.639,0,0,1,2.665-2.486,8.061,8.061,0,0,1,3.778-.879,7.739,7.739,0,0,1,2.9.522,5.347,5.347,0,0,1,2.184,1.593V6.539Zm-4.629,9.933a3.967,3.967,0,0,0,1.25-3.036,3.892,3.892,0,0,0-1.25-3,5.055,5.055,0,0,0-6.43,0,3.892,3.892,0,0,0-1.25,3,3.967,3.967,0,0,0,1.25,3.036,5.012,5.012,0,0,0,6.43,0Z"/><path class="cls-1" d="M1.675,44.929A2.489,2.489,0,0,1,.7,43.991,2.737,2.737,0,0,1,.7,41.3a2.5,2.5,0,0,1,.973-.938,2.859,2.859,0,0,1,1.393-.341,2.913,2.913,0,0,1,1.1.2,2.26,2.26,0,0,1,.85.6l-.476.462A1.909,1.909,0,0,0,3.1,40.676a2.093,2.093,0,0,0-1.033.256,1.873,1.873,0,0,0-.722.707,2.089,2.089,0,0,0,0,2.015,1.866,1.866,0,0,0,.722.707,2.093,2.093,0,0,0,1.033.256A1.916,1.916,0,0,0,4.543,44l.476.462a2.269,2.269,0,0,1-.854.6,2.881,2.881,0,0,1-1.1.206A2.828,2.828,0,0,1,1.675,44.929Zm11.081-4.847v5.129h-.733V42.925H9.078v2.286H8.345V40.082h.733v2.2h2.945v-2.2Zm7.085,3.847H17.115l-.563,1.282H15.8l2.322-5.129h.725l2.331,5.129h-.77Zm-.256-.586-1.107-2.514-1.106,2.514Zm8.058,1.868-1.106-1.575c-.137.01-.244.014-.322.014H24.947v1.561h-.732V40.082h2a2.374,2.374,0,0,1,1.568.477,1.613,1.613,0,0,1,.571,1.311,1.709,1.709,0,0,1-.293,1.011,1.653,1.653,0,0,1-.835.608l1.216,1.722Zm-.387-2.483a1.049,1.049,0,0,0,.366-.858,1.033,1.033,0,0,0-.366-.853,1.652,1.652,0,0,0-1.063-.3H24.947v2.307h1.246A1.646,1.646,0,0,0,27.256,42.728Zm5.509-2.008H31.007v-.638h4.242v.638H33.491v4.491h-.726Zm9.283,3.853v.638H38.326V40.082h3.619v.638H39.058V42.3h2.573v.623H39.058v1.655Zm6.894.638-1.106-1.575c-.137.01-.244.014-.323.014H46.246v1.561h-.733V40.082h2a2.377,2.377,0,0,1,1.569.477,1.613,1.613,0,0,1,.571,1.311,1.716,1.716,0,0,1-.293,1.011,1.658,1.658,0,0,1-.835.608l1.216,1.722Zm-.388-2.483a1.046,1.046,0,0,0,.367-.858,1.031,1.031,0,0,0-.367-.853,1.647,1.647,0,0,0-1.062-.3H46.246v2.307h1.246A1.641,1.641,0,0,0,48.554,42.728Zm8.287,1.845v.638H53.119V40.082h3.619v.638H53.851V42.3h2.573v.623H53.851v1.655Zm3.465-4.491h2.162a3.122,3.122,0,0,1,1.443.322,2.367,2.367,0,0,1,.978.906,2.74,2.74,0,0,1,0,2.673,2.367,2.367,0,0,1-.978.906,3.122,3.122,0,0,1-1.443.322H60.306Zm2.118,4.491a2.374,2.374,0,0,0,1.095-.241,1.746,1.746,0,0,0,.729-.678,2.1,2.1,0,0,0,0-2.015,1.752,1.752,0,0,0-.729-.678,2.374,2.374,0,0,0-1.095-.241H61.039v3.853Zm14.03-4.014a1.79,1.79,0,0,1,0,2.623,2.377,2.377,0,0,1-1.568.475H73.619v1.554h-.733V40.082h2A2.372,2.372,0,0,1,76.454,40.559Zm-.527,2.165a1.178,1.178,0,0,0,0-1.707,1.65,1.65,0,0,0-1.063-.3H73.619v2.3h1.245A1.662,1.662,0,0,0,75.927,42.724Zm7.883,2.487L82.7,43.636c-.137.01-.244.014-.322.014H81.114v1.561h-.732V40.082h2a2.374,2.374,0,0,1,1.568.477,1.613,1.613,0,0,1,.571,1.311,1.709,1.709,0,0,1-.293,1.011,1.653,1.653,0,0,1-.835.608l1.216,1.722Zm-.387-2.483a1.049,1.049,0,0,0,.366-.858,1.033,1.033,0,0,0-.366-.853,1.652,1.652,0,0,0-1.063-.3H81.114v2.307H82.36A1.646,1.646,0,0,0,83.423,42.728Zm5.479,2.2a2.507,2.507,0,0,1-.977-.942,2.7,2.7,0,0,1,0-2.681,2.514,2.514,0,0,1,.977-.942,3.028,3.028,0,0,1,2.792,0,2.513,2.513,0,0,1,.975.938,2.751,2.751,0,0,1,0,2.689,2.5,2.5,0,0,1-.975.938,3.028,3.028,0,0,1-2.792,0Zm2.414-.568a1.878,1.878,0,0,0,.711-.707,2.075,2.075,0,0,0,0-2.015,1.885,1.885,0,0,0-.711-.707,2.013,2.013,0,0,0-1.014-.256,2.054,2.054,0,0,0-1.022.256,1.878,1.878,0,0,0-.719.707,2.089,2.089,0,0,0,0,2.015,1.871,1.871,0,0,0,.719.707,2.054,2.054,0,0,0,1.022.256A2.013,2.013,0,0,0,91.316,44.361Zm5.836-3.641v1.788h2.571v.63H97.152v2.073H96.42V40.082h3.619v.638Zm9.921,3.853v.638h-3.722V40.082h3.619v.638h-2.886V42.3h2.571v.623h-2.571v1.655Zm3.843.517a2.289,2.289,0,0,1-.846-.465l.271-.571a2.241,2.241,0,0,0,.751.427,2.731,2.731,0,0,0,.941.165,1.7,1.7,0,0,0,.953-.215.668.668,0,0,0,.315-.576.569.569,0,0,0-.172-.428,1.157,1.157,0,0,0-.425-.253c-.169-.059-.407-.124-.715-.2a7.345,7.345,0,0,1-.934-.279,1.557,1.557,0,0,1-.608-.428,1.146,1.146,0,0,1-.253-.781,1.323,1.323,0,0,1,.216-.74,1.484,1.484,0,0,1,.656-.527,2.657,2.657,0,0,1,1.092-.2,3.419,3.419,0,0,1,.894.118,2.371,2.371,0,0,1,.754.337l-.242.586a2.65,2.65,0,0,0-.688-.311,2.567,2.567,0,0,0-.718-.107,1.589,1.589,0,0,0-.935.227.7.7,0,0,0-.311.587.56.56,0,0,0,.176.429,1.233,1.233,0,0,0,.436.256,6.7,6.7,0,0,0,.707.194,7.2,7.2,0,0,1,.931.278,1.579,1.579,0,0,1,.6.425,1.122,1.122,0,0,1,.253.77,1.316,1.316,0,0,1-.22.736,1.469,1.469,0,0,1-.666.527,2.752,2.752,0,0,1-1.1.2A3.5,3.5,0,0,1,110.916,45.09Zm6.828,0a2.289,2.289,0,0,1-.846-.465l.271-.571a2.241,2.241,0,0,0,.751.427,2.731,2.731,0,0,0,.941.165,1.7,1.7,0,0,0,.953-.215.668.668,0,0,0,.315-.576.569.569,0,0,0-.172-.428,1.148,1.148,0,0,0-.425-.253c-.169-.059-.407-.124-.715-.2a7.274,7.274,0,0,1-.933-.279,1.553,1.553,0,0,1-.609-.428,1.146,1.146,0,0,1-.253-.781,1.323,1.323,0,0,1,.216-.74,1.489,1.489,0,0,1,.656-.527,2.661,2.661,0,0,1,1.092-.2,3.419,3.419,0,0,1,.894.118,2.367,2.367,0,0,1,.755.337l-.243.586a2.65,2.65,0,0,0-.688-.311,2.567,2.567,0,0,0-.718-.107,1.586,1.586,0,0,0-.934.227.7.7,0,0,0-.312.587.564.564,0,0,0,.176.429,1.233,1.233,0,0,0,.436.256,6.7,6.7,0,0,0,.707.194,7.153,7.153,0,0,1,.931.278,1.572,1.572,0,0,1,.6.425,1.122,1.122,0,0,1,.253.77,1.316,1.316,0,0,1-.22.736,1.464,1.464,0,0,1-.666.527,2.752,2.752,0,0,1-1.1.2A3.5,3.5,0,0,1,117.744,45.09Zm6.451-5.008h.732v5.129H124.2Zm5.467,4.847a2.52,2.52,0,0,1-.979-.942,2.708,2.708,0,0,1,0-2.681,2.527,2.527,0,0,1,.979-.942,3.026,3.026,0,0,1,2.791,0,2.5,2.5,0,0,1,.974.938,2.744,2.744,0,0,1,0,2.689,2.49,2.49,0,0,1-.974.938,3.026,3.026,0,0,1-2.791,0Zm2.414-.568a1.883,1.883,0,0,0,.71-.707,2.075,2.075,0,0,0,0-2.015,1.89,1.89,0,0,0-.71-.707,2.017,2.017,0,0,0-1.015-.256,2.051,2.051,0,0,0-1.022.256,1.869,1.869,0,0,0-.718.707,2.075,2.075,0,0,0,0,2.015,1.862,1.862,0,0,0,.718.707,2.051,2.051,0,0,0,1.022.256A2.017,2.017,0,0,0,132.076,44.361Zm9.513-4.279v5.129h-.6l-3.077-3.824v3.824h-.733V40.082h.6l3.077,3.825V40.082Zm7.085,3.847h-2.726l-.564,1.282h-.755l2.323-5.129h.725l2.33,5.129h-.769Zm-.257-.586-1.107-2.514-1.1,2.514Zm4.632-3.261h.732v4.491h2.777v.638h-3.509ZM167.2,43.929H164.47l-.564,1.282h-.755l2.323-5.129h.726l2.329,5.129h-.769Zm-.257-.586-1.106-2.514-1.106,2.514Zm5.462,1.586a2.509,2.509,0,0,1-.971-.938,2.751,2.751,0,0,1,0-2.689,2.513,2.513,0,0,1,.975-.938,2.854,2.854,0,0,1,1.393-.341,2.908,2.908,0,0,1,1.1.2,2.26,2.26,0,0,1,.85.6l-.476.462a1.909,1.909,0,0,0-1.443-.608,2.085,2.085,0,0,0-1.033.256,1.866,1.866,0,0,0-.722.707,2.075,2.075,0,0,0,0,2.015,1.859,1.859,0,0,0,.722.707,2.085,2.085,0,0,0,1.033.256A1.916,1.916,0,0,0,175.27,44l.476.462a2.269,2.269,0,0,1-.854.6,2.88,2.88,0,0,1-1.1.206A2.836,2.836,0,0,1,172.4,44.929Zm7.466,0a2.509,2.509,0,0,1-.971-.938,2.751,2.751,0,0,1,0-2.689,2.513,2.513,0,0,1,.975-.938,2.853,2.853,0,0,1,1.392-.341,2.91,2.91,0,0,1,1.1.2,2.26,2.26,0,0,1,.85.6l-.476.462a1.91,1.91,0,0,0-1.443-.608,2.085,2.085,0,0,0-1.033.256,1.866,1.866,0,0,0-.722.707,2.075,2.075,0,0,0,0,2.015,1.859,1.859,0,0,0,.722.707,2.085,2.085,0,0,0,1.033.256A1.917,1.917,0,0,0,182.736,44l.476.462a2.269,2.269,0,0,1-.854.6,2.88,2.88,0,0,1-1.1.206A2.836,2.836,0,0,1,179.867,44.929Zm7.477,0a2.51,2.51,0,0,1-.978-.942,2.7,2.7,0,0,1,0-2.681,2.517,2.517,0,0,1,.978-.942,3.026,3.026,0,0,1,2.791,0,2.5,2.5,0,0,1,.975.938,2.744,2.744,0,0,1,0,2.689,2.486,2.486,0,0,1-.975.938,3.026,3.026,0,0,1-2.791,0Zm2.415-.568a1.89,1.89,0,0,0,.71-.707,2.082,2.082,0,0,0,0-2.015,1.9,1.9,0,0,0-.71-.707,2.017,2.017,0,0,0-1.015-.256,2.058,2.058,0,0,0-1.023.256,1.873,1.873,0,0,0-.717.707,2.075,2.075,0,0,0,0,2.015,1.866,1.866,0,0,0,.717.707,2.058,2.058,0,0,0,1.023.256A2.017,2.017,0,0,0,189.759,44.361Zm5.63.323A2.324,2.324,0,0,1,194.818,43V40.082h.733v2.887q0,1.648,1.443,1.648a1.393,1.393,0,0,0,1.077-.406,1.789,1.789,0,0,0,.374-1.242V40.082h.71V43a2.317,2.317,0,0,1-.571,1.69,2.477,2.477,0,0,1-3.195,0Zm11.957-4.6v5.129h-.6l-3.077-3.824v3.824h-.733V40.082h.6l3.077,3.825V40.082Zm4.836.638h-1.758v-.638h4.242v.638h-1.759v4.491h-.725Zm8.573,3.209h-2.726l-.564,1.282h-.755l2.323-5.129h.726l2.329,5.129h-.769Zm-.257-.586-1.107-2.514-1.1,2.514Zm9.041-3.261v5.129h-.6l-3.077-3.824v3.824h-.732V40.082h.6l3.077,3.825V40.082Zm4.836.638h-1.759v-.638h4.242v.638H235.1v4.491h-.724Zm5.872,4.37a2.289,2.289,0,0,1-.846-.465l.271-.571a2.241,2.241,0,0,0,.751.427,2.731,2.731,0,0,0,.941.165,1.7,1.7,0,0,0,.953-.215.668.668,0,0,0,.315-.576.569.569,0,0,0-.172-.428,1.157,1.157,0,0,0-.425-.253c-.169-.059-.407-.124-.715-.2a7.345,7.345,0,0,1-.934-.279,1.557,1.557,0,0,1-.608-.428,1.146,1.146,0,0,1-.253-.781,1.323,1.323,0,0,1,.216-.74,1.484,1.484,0,0,1,.656-.527,2.657,2.657,0,0,1,1.092-.2,3.419,3.419,0,0,1,.894.118,2.361,2.361,0,0,1,.754.337l-.242.586a2.65,2.65,0,0,0-.688-.311,2.567,2.567,0,0,0-.718-.107,1.589,1.589,0,0,0-.935.227.7.7,0,0,0-.311.587.564.564,0,0,0,.176.429,1.233,1.233,0,0,0,.436.256,6.7,6.7,0,0,0,.707.194,7.153,7.153,0,0,1,.931.278,1.579,1.579,0,0,1,.6.425,1.122,1.122,0,0,1,.253.77,1.316,1.316,0,0,1-.22.736,1.469,1.469,0,0,1-.666.527,2.752,2.752,0,0,1-1.1.2A3.5,3.5,0,0,1,240.247,45.09Z"/><line class="cls-2" y1="30.509" x2="243.349" y2="30.509"/></svg>