<svg id="Layer_1" data-name="Layer 1" xmlns="http://www.w3.org/2000/svg" viewBox="0 0 32 32"><defs><style>.cls-1{fill:#04a5c7;}</style></defs><path class="cls-1" d="M9.088,29.115a16.3,16.3,0,0,1-5.06-2.2L6.48,22.06a15.674,15.674,0,0,0,4.432,1.963A18.307,18.307,0,0,0,16,24.767q5.727,0,5.727-3.018a2.015,2.015,0,0,0-1.459-1.992,25.31,25.31,0,0,0-4.675-1.074,37.428,37.428,0,0,1-5.5-1.172,8.424,8.424,0,0,1-3.682-2.326,6.491,6.491,0,0,1-1.559-4.627A7.279,7.279,0,0,1,8.091,4.346,14.786,14.786,0,0,1,16.865,2.02a25.277,25.277,0,0,1,5.624.64,15.676,15.676,0,0,1,4.6,1.712L24.636,9.228a15.152,15.152,0,0,0-7.814-2.047,8.674,8.674,0,0,0-4.279.841,2.512,2.512,0,0,0-1.457,2.233,2.218,2.218,0,0,0,1.556,2.164,24.785,24.785,0,0,0,4.837,1.2A37.56,37.56,0,0,1,22.847,14.8a8.429,8.429,0,0,1,3.605,2.25,6.273,6.273,0,0,1,1.507,4.5,7.118,7.118,0,0,1-3.323,6.139,15.668,15.668,0,0,1-9.055,2.292A24.509,24.509,0,0,1,9.088,29.115Z"/></svg>