<?xml version="1.0" encoding="utf-8"?>
<!-- Generator: Adobe Illustrator 25.2.0, SVG Export Plug-In . SVG Version: 6.00 Build 0)  -->
<svg version="1.1" id="Layer_1" xmlns="http://www.w3.org/2000/svg" xmlns:xlink="http://www.w3.org/1999/xlink" x="0px" y="0px"
	 viewBox="0 0 16 16" style="enable-background:new 0 0 16 16;" xml:space="preserve">
<style type="text/css">
	.st0{fill:#04A5C7;}
</style>
<path class="st0" d="M5.1,13.5C4.4,13.3,3.6,13,3,12.6l1-2c0.6,0.4,1.2,0.6,1.9,0.8c0.7,0.2,1.4,0.3,2.1,0.3c1.6,0,2.4-0.4,2.4-1.3
	c0-0.4-0.2-0.7-0.6-0.8c-0.6-0.2-1.3-0.4-2-0.4C7.1,9,6.3,8.9,5.5,8.6C4.9,8.4,4.4,8.1,4,7.7C3.5,7.1,3.3,6.4,3.3,5.7
	c0-1,0.5-2,1.4-2.6c1.1-0.7,2.4-1,3.7-1c0.8,0,1.6,0.1,2.3,0.3c0.7,0.1,1.3,0.4,1.9,0.7l-1,2c-1-0.6-2.1-0.9-3.3-0.9
	c-0.6,0-1.2,0.1-1.8,0.4C6.2,4.8,6,5.2,5.9,5.6c0,0.4,0.3,0.8,0.6,0.9c0.7,0.2,1.3,0.4,2,0.5c0.8,0.1,1.5,0.3,2.2,0.5
	C11.4,7.7,12,8,12.4,8.4C12.8,9,13,9.6,13,10.3c0,1-0.5,2-1.4,2.6c-1.1,0.7-2.5,1-3.8,1C6.9,13.8,6,13.7,5.1,13.5z"/>
</svg>
